<svg xmlns="http://www.w3.org/2000/svg" viewBox="0 0 512 512"><!--!Font Awesome Free 6.7.1 by @fontawesome - https://fontawesome.com License - https://fontawesome.com/license/free Copyright 2024 Fonticons, Inc.--><path d="M512 199.7c0 23.6-20.7 43.8-44.8 43.8h-99.9c16.3 17 18.3 49.8-6.3 70.9 14.3 22.8 2.1 53-16.5 62.3C353.6 425.9 322.7 448 272 448c-2.7 0-13.3-.2-16-.2-62 .2-76.9-31.1-123.7-38.3C120.6 407.7 112 397.6 112 385.8V214.3l0 0c0-18.4 10.6-35.9 28.5-43.8 28.9-13 95.4-49 107.5-77.3 7.8-18.2 21.4-29.1 40-29.1 34.2 0 57.8 35.1 44.1 66.9-3.6 8.4-8.3 16.7-14.2 24.9H467.2c23.5 0 44.8 20.5 44.8 43.8zM96 200v192c0 13.3-10.7 24-24 24H24c-13.3 0-24-10.7-24-24V200c0-13.3 10.7-24 24-24h48c13.3 0 24 10.7 24 24zM68 368c0-11-9-20-20-20s-20 9-20 20 9 20 20 20 20-9 20-20z" style="
    fill: #d90d0d;
"/></svg>